<svg width="24" height="24" viewBox="0 0 24 24" fill="none" xmlns="http://www.w3.org/2000/svg">
<g clip-path="url(#clip0_4418_3419)">
<path d="M12 10C10.9 10 10 10.9 10 12C10 13.1 10.9 14 12 14C13.1 14 14 13.1 14 12" stroke="currentColor" stroke-width="1.5" stroke-linecap="round" stroke-linejoin="round"/>
<path d="M20 18C21.26 16.33 22 14.25 22 12C22 9.75 21.26 7.67 20 6" stroke="currentColor" stroke-width="1.5" stroke-linecap="round" stroke-linejoin="round"/>
<path d="M4 18.0009C2.74 16.3309 2 14.2509 2 12.0009C2 11.7909 2.00999 11.5809 2.01999 11.3809" stroke="currentColor" stroke-width="1.5" stroke-linecap="round" stroke-linejoin="round"/>
<path d="M4 6C3.62 6.51 3.28 7.06001 3 7.64001" stroke="currentColor" stroke-width="1.5" stroke-linecap="round" stroke-linejoin="round"/>
<path d="M16.7998 15.6004C17.5498 14.6004 17.9998 13.3504 17.9998 12.0004C17.9998 10.6504 17.5498 9.40039 16.7998 8.40039" stroke="currentColor" stroke-width="1.5" stroke-linecap="round" stroke-linejoin="round"/>
<path d="M7.20001 8.40039C6.45001 9.40039 6 10.6504 6 12.0004C6 13.3504 6.45001 14.6004 7.20001 15.6004" stroke="currentColor" stroke-width="1.5" stroke-linecap="round" stroke-linejoin="round"/>
</g>
<defs>
<clipPath id="clip0_4418_3419">
<rect width="24" height="24" fill="none"/>
</clipPath>
</defs>
</svg>