<svg width="24" height="24" viewBox="0 0 24 24" fill="none" xmlns="http://www.w3.org/2000/svg">
<g clip-path="url(#clip0_655_9635)">
<path d="M11.9993 2C11.9993 3.22 10.9993 4.22 9.7793 4.22" stroke="currentColor" stroke-width="1.5" stroke-linecap="round" stroke-linejoin="round"/>
<path opacity="0.4" d="M14.22 4.22C13 4.22 12 3.22 12 2" stroke="currentColor" stroke-width="1.5" stroke-linecap="round" stroke-linejoin="round"/>
<path opacity="0.4" d="M11.9999 5.33002C11.9999 7.22002 10.5599 8.66002 8.66992 8.66002" stroke="currentColor" stroke-width="1.5" stroke-linecap="round" stroke-linejoin="round"/>
<path d="M15.33 8.67003C13.44 8.67003 12 7.23003 12 5.34003" stroke="currentColor" stroke-width="1.5" stroke-linecap="round" stroke-linejoin="round"/>
<path d="M12.0005 8.66998C12.0005 11.11 10.0005 13.11 7.56055 13.11" stroke="currentColor" stroke-width="1.5" stroke-linecap="round" stroke-linejoin="round"/>
<path opacity="0.4" d="M16.44 13.11C14 13.11 12 11.11 12 8.66998" stroke="currentColor" stroke-width="1.5" stroke-linecap="round" stroke-linejoin="round"/>
<path opacity="0.4" d="M11.9995 12C11.9995 15.11 9.55945 17.56 6.43945 17.56" stroke="currentColor" stroke-width="1.5" stroke-linecap="round" stroke-linejoin="round"/>
<path d="M17.56 17.56C14.45 17.56 12 15.12 12 12" stroke="currentColor" stroke-width="1.5" stroke-linecap="round" stroke-linejoin="round"/>
<path d="M12 20.89V2" stroke="currentColor" stroke-width="1.5" stroke-linecap="round" stroke-linejoin="round"/>
<path d="M4.2207 22C8.5507 20.56 15.4407 20.56 19.7807 22" stroke="currentColor" stroke-width="1.5" stroke-linecap="round" stroke-linejoin="round"/>
</g>
<defs>
<clipPath id="clip0_655_9635">
<rect width="24" height="24" fill="none"/>
</clipPath>
</defs>
</svg>